<mxfile host="app.diagrams.net" modified="2022-04-19T19:58:24.968Z" agent="5.0 (Windows NT 10.0; Win64; x64) AppleWebKit/537.36 (KHTML, like Gecko) Chrome/100.0.4896.88 Safari/537.36" etag="j12RLM3p9xVjFlox1IIP" version="17.4.5" type="github">
  <diagram id="54w9TevFvyDa3EaUfBTH" name="Page-1">
    <mxGraphModel dx="1988" dy="1458" grid="1" gridSize="10" guides="1" tooltips="1" connect="1" arrows="1" fold="1" page="1" pageScale="1" pageWidth="850" pageHeight="1100" math="1" shadow="0">
      <root>
        <mxCell id="0" />
        <mxCell id="1" parent="0" />
        <mxCell id="HzU8FRFAqulTXBo3en---1" value="&lt;font style=&quot;font-size: 20px&quot;&gt;&amp;nbsp; &amp;nbsp; &amp;nbsp; &amp;nbsp; &amp;nbsp; &amp;nbsp; &amp;nbsp; &amp;nbsp; &amp;nbsp; &amp;nbsp; &amp;nbsp; &amp;nbsp; &amp;nbsp; &amp;nbsp; &amp;nbsp; &amp;nbsp; &amp;nbsp;...Si uite am realizat deja lucruri:&lt;br&gt;&amp;nbsp; &amp;nbsp; &amp;nbsp; &amp;nbsp; &amp;nbsp; &amp;nbsp; &amp;nbsp; &amp;nbsp; &amp;nbsp; &amp;nbsp; &amp;nbsp; &amp;nbsp; &amp;nbsp; &amp;nbsp; &amp;nbsp; &amp;nbsp; &amp;nbsp; &amp;nbsp; &amp;nbsp; &amp;nbsp; &amp;nbsp; &amp;nbsp; &amp;nbsp; am inceput sa negociem pentru PASAT&lt;br&gt;&amp;nbsp; &amp;nbsp; si colaboram&lt;br&gt;la evitarea&lt;br&gt;&amp;nbsp;unui VIOL.&lt;br&gt;&lt;/font&gt;" style="text;html=1;align=center;verticalAlign=middle;resizable=0;points=[];autosize=1;strokeColor=none;fillColor=none;" vertex="1" parent="1">
          <mxGeometry x="-270" y="100" width="620" height="90" as="geometry" />
        </mxCell>
        <mxCell id="HzU8FRFAqulTXBo3en---2" value="" style="rounded=0;whiteSpace=wrap;html=1;fontSize=20;fillColor=none;strokeWidth=2;" vertex="1" parent="1">
          <mxGeometry x="120" y="140" width="370" height="180" as="geometry" />
        </mxCell>
        <mxCell id="HzU8FRFAqulTXBo3en---4" value="OBSESSION of&lt;br&gt;COMPLETE DEFINITION-COVERAGE&lt;br&gt;of ANTICIPATE $$(\Delta -t-near)$$EXPERIENCE" style="text;html=1;align=center;verticalAlign=middle;resizable=0;points=[];autosize=1;strokeColor=none;fillColor=none;fontSize=20;" vertex="1" parent="1">
          <mxGeometry x="75" y="190" width="460" height="80" as="geometry" />
        </mxCell>
        <mxCell id="HzU8FRFAqulTXBo3en---6" value="&quot;daca eu te-as hrani doar cu PASAT,te-ai mai&lt;br&gt;fute?&quot; ; &quot;consensual,nu prea...&quot;" style="text;html=1;align=center;verticalAlign=middle;resizable=0;points=[];autosize=1;strokeColor=none;fillColor=none;fontSize=20;" vertex="1" parent="1">
          <mxGeometry y="360" width="410" height="50" as="geometry" />
        </mxCell>
        <mxCell id="HzU8FRFAqulTXBo3en---7" value="e mai ecologic&lt;br&gt;sa futi roboti ?" style="text;html=1;align=center;verticalAlign=middle;resizable=0;points=[];autosize=1;strokeColor=none;fillColor=none;fontSize=20;" vertex="1" parent="1">
          <mxGeometry x="135" y="440" width="140" height="50" as="geometry" />
        </mxCell>
        <mxCell id="HzU8FRFAqulTXBo3en---8" value="" style="rounded=0;whiteSpace=wrap;html=1;fontSize=20;strokeWidth=2;fillColor=none;" vertex="1" parent="1">
          <mxGeometry x="133" y="435" width="145" height="60" as="geometry" />
        </mxCell>
        <mxCell id="HzU8FRFAqulTXBo3en---9" value="$$\frac{\delta CORPUS TINTIT (HUBBLE)}{\delta CORPUS pre-ACCESAT}$$" style="text;html=1;align=center;verticalAlign=middle;resizable=0;points=[];autosize=1;strokeColor=none;fillColor=none;fontSize=20;" vertex="1" parent="1">
          <mxGeometry x="-160" y="550" width="710" height="30" as="geometry" />
        </mxCell>
        <mxCell id="HzU8FRFAqulTXBo3en---10" value="" style="rounded=0;whiteSpace=wrap;html=1;fontSize=20;strokeWidth=2;fillColor=none;" vertex="1" parent="1">
          <mxGeometry x="410" y="510" width="240" height="100" as="geometry" />
        </mxCell>
        <mxCell id="HzU8FRFAqulTXBo3en---11" value="ARTEFACT&lt;br&gt;(E/I)NVOCATIONAL" style="text;html=1;align=center;verticalAlign=middle;resizable=0;points=[];autosize=1;strokeColor=none;fillColor=none;fontSize=20;" vertex="1" parent="1">
          <mxGeometry x="435" y="535" width="190" height="50" as="geometry" />
        </mxCell>
        <mxCell id="HzU8FRFAqulTXBo3en---12" value="&quot;sa citeasca&lt;br&gt;feedback-ul&quot;" style="text;html=1;align=center;verticalAlign=middle;resizable=0;points=[];autosize=1;strokeColor=none;fillColor=none;fontSize=20;" vertex="1" parent="1">
          <mxGeometry x="35" y="700" width="130" height="50" as="geometry" />
        </mxCell>
        <mxCell id="HzU8FRFAqulTXBo3en---13" value="" style="rounded=0;whiteSpace=wrap;html=1;fontSize=20;strokeWidth=2;fillColor=none;" vertex="1" parent="1">
          <mxGeometry x="30" y="687.5" width="140" height="75" as="geometry" />
        </mxCell>
        <mxCell id="HzU8FRFAqulTXBo3en---14" value="poate&lt;br&gt;pot&lt;br&gt;consuma &lt;br&gt;&amp;nbsp;feedback&lt;br&gt;ALTFEL" style="text;html=1;align=center;verticalAlign=middle;resizable=0;points=[];autosize=1;strokeColor=none;fillColor=none;fontSize=20;" vertex="1" parent="1">
          <mxGeometry x="165" y="680" width="100" height="130" as="geometry" />
        </mxCell>
        <mxCell id="HzU8FRFAqulTXBo3en---15" value="&quot;asculta-ma si&lt;br&gt;incearca sa intelegi&lt;br&gt;ideea&quot;" style="text;html=1;align=center;verticalAlign=middle;resizable=0;points=[];autosize=1;strokeColor=none;fillColor=none;fontSize=20;" vertex="1" parent="1">
          <mxGeometry x="20" y="810" width="190" height="80" as="geometry" />
        </mxCell>
        <mxCell id="HzU8FRFAqulTXBo3en---16" value="" style="rounded=0;whiteSpace=wrap;html=1;fontSize=20;strokeWidth=2;fillColor=none;" vertex="1" parent="1">
          <mxGeometry x="15" y="810" width="205" height="80" as="geometry" />
        </mxCell>
        <mxCell id="HzU8FRFAqulTXBo3en---17" value="" style="rounded=0;whiteSpace=wrap;html=1;fontSize=20;strokeWidth=2;fillColor=none;dashed=1;" vertex="1" parent="1">
          <mxGeometry x="160" y="780" width="110" height="30" as="geometry" />
        </mxCell>
        <mxCell id="HzU8FRFAqulTXBo3en---21" style="edgeStyle=orthogonalEdgeStyle;rounded=0;orthogonalLoop=1;jettySize=auto;html=1;fontSize=20;" edge="1" parent="1" source="HzU8FRFAqulTXBo3en---18" target="HzU8FRFAqulTXBo3en---20">
          <mxGeometry relative="1" as="geometry" />
        </mxCell>
        <mxCell id="HzU8FRFAqulTXBo3en---18" value="KNOWORIGIN" style="rounded=0;whiteSpace=wrap;html=1;fontSize=20;strokeWidth=2;fillColor=none;" vertex="1" parent="1">
          <mxGeometry x="40" y="930" width="150" height="50" as="geometry" />
        </mxCell>
        <mxCell id="HzU8FRFAqulTXBo3en---20" value="market place&amp;nbsp;&lt;br&gt;&amp;nbsp; &amp;nbsp; &amp;nbsp; &amp;nbsp; &amp;nbsp; &amp;nbsp; &amp;nbsp; &amp;nbsp; &amp;nbsp; &amp;nbsp; &amp;nbsp; cu certificarea provenientei." style="text;html=1;align=center;verticalAlign=middle;resizable=0;points=[];autosize=1;strokeColor=none;fillColor=none;fontSize=20;" vertex="1" parent="1">
          <mxGeometry x="5" y="1005" width="380" height="50" as="geometry" />
        </mxCell>
        <mxCell id="HzU8FRFAqulTXBo3en---22" value="$$DUAL_s$$" style="text;html=1;align=center;verticalAlign=middle;resizable=0;points=[];autosize=1;strokeColor=none;fillColor=none;fontSize=20;" vertex="1" parent="1">
          <mxGeometry x="550" y="780" width="130" height="30" as="geometry" />
        </mxCell>
        <mxCell id="HzU8FRFAqulTXBo3en---23" value="$$(\delta \mathbb{V} \backslash \delta \mathbb{R})$$" style="text;html=1;align=center;verticalAlign=middle;resizable=0;points=[];autosize=1;strokeColor=none;fillColor=none;fontSize=20;" vertex="1" parent="1">
          <mxGeometry x="363" y="804" width="490" height="30" as="geometry" />
        </mxCell>
        <mxCell id="HzU8FRFAqulTXBo3en---24" value="&amp;nbsp; &amp;nbsp; &amp;nbsp; &amp;nbsp; &amp;nbsp; CATEGORY&lt;br&gt;TYPE&lt;br&gt;ROLE&lt;br&gt;&amp;nbsp; CLASS&lt;br&gt;&amp;nbsp; &amp;nbsp; &lt;u&gt;TOPOS&lt;/u&gt;&amp;nbsp;" style="text;html=1;align=center;verticalAlign=middle;resizable=0;points=[];autosize=1;strokeColor=none;fillColor=none;fontSize=20;" vertex="1" parent="1">
          <mxGeometry x="636" y="740" width="180" height="130" as="geometry" />
        </mxCell>
        <mxCell id="HzU8FRFAqulTXBo3en---25" value="" style="strokeWidth=2;html=1;shape=mxgraph.flowchart.annotation_2;align=left;labelPosition=right;pointerEvents=1;fontSize=20;fillColor=none;" vertex="1" parent="1">
          <mxGeometry x="660" y="755" width="30" height="100" as="geometry" />
        </mxCell>
        <mxCell id="HzU8FRFAqulTXBo3en---27" value="" style="endArrow=none;html=1;rounded=0;fontSize=20;" edge="1" parent="1">
          <mxGeometry width="50" height="50" relative="1" as="geometry">
            <mxPoint x="676" y="805" as="sourcePoint" />
            <mxPoint x="696" y="781" as="targetPoint" />
            <Array as="points">
              <mxPoint x="686" y="805" />
              <mxPoint x="686" y="791" />
              <mxPoint x="686" y="781" />
            </Array>
          </mxGeometry>
        </mxCell>
        <mxCell id="HzU8FRFAqulTXBo3en---28" value="" style="endArrow=none;html=1;rounded=0;fontSize=20;" edge="1" parent="1">
          <mxGeometry width="50" height="50" relative="1" as="geometry">
            <mxPoint x="696" y="826" as="sourcePoint" />
            <mxPoint x="676" y="806" as="targetPoint" />
            <Array as="points">
              <mxPoint x="686" y="826" />
              <mxPoint x="686" y="806" />
            </Array>
          </mxGeometry>
        </mxCell>
        <mxCell id="HzU8FRFAqulTXBo3en---29" value="" style="endArrow=none;html=1;rounded=0;fontSize=20;" edge="1" parent="1">
          <mxGeometry width="50" height="50" relative="1" as="geometry">
            <mxPoint x="678" y="806" as="sourcePoint" />
            <mxPoint x="698" y="806" as="targetPoint" />
          </mxGeometry>
        </mxCell>
      </root>
    </mxGraphModel>
  </diagram>
</mxfile>
